<?xml version="1.0" encoding="UTF-8" standalone="no"?><!DOCTYPE svg PUBLIC "-//W3C//DTD SVG 1.1//EN" "http://www.w3.org/Graphics/SVG/1.1/DTD/svg11.dtd"><svg width="100%" height="100%" viewBox="0 0 1664 340" version="1.1" xmlns="http://www.w3.org/2000/svg" xmlns:xlink="http://www.w3.org/1999/xlink" xml:space="preserve" xmlns:serif="http://www.serif.com/" style="fill-rule:evenodd;clip-rule:evenodd;stroke-linecap:round;stroke-linejoin:round;stroke-miterlimit:1.5;"><g><path d="M439.588,276.785l0,36.2l-8.067,0l0,-4.609c-1.356,1.627 -3.051,2.881 -5.084,3.762c-2.034,0.881 -4.226,1.322 -6.576,1.322c-4.836,-0 -8.643,-1.345 -11.423,-4.034c-2.779,-2.689 -4.169,-6.677 -4.169,-11.965l0,-20.676l8.474,0l0,19.524c0,3.254 0.735,5.683 2.203,7.287c1.469,1.605 3.559,2.407 6.271,2.407c3.028,-0 5.434,-0.938 7.22,-2.813c1.785,-1.876 2.677,-4.576 2.677,-8.101l0,-18.304l8.474,0Z" style="fill:#fff;fill-rule:nonzero;"/><path d="M481.968,276.379c4.565,-0 8.225,1.333 10.982,3.999c2.757,2.667 4.135,6.621 4.135,11.864l0,20.743l-8.473,0l-0,-19.659c-0,-3.163 -0.746,-5.547 -2.238,-7.152c-1.491,-1.604 -3.615,-2.406 -6.372,-2.406c-3.118,-0 -5.581,0.938 -7.389,2.813c-1.808,1.876 -2.712,4.576 -2.712,8.101l0,18.303l-8.473,0l-0,-36.2l8.067,0l-0,4.678c1.401,-1.672 3.163,-2.938 5.287,-3.796c2.124,-0.859 4.52,-1.288 7.186,-1.288Z" style="fill:#fff;fill-rule:nonzero;"/><path d="M526.653,282.073c2.44,-3.796 6.734,-5.694 12.88,-5.694l0,8.067c-0.723,-0.136 -1.378,-0.204 -1.966,-0.204c-3.299,0 -5.875,0.961 -7.728,2.881c-1.853,1.921 -2.779,4.689 -2.779,8.305l-0,17.557l-8.474,0l-0,-36.2l8.067,0l-0,5.288Z" style="fill:#fff;fill-rule:nonzero;"/><path d="M591.133,295.089c-0,0.587 -0.046,1.423 -0.136,2.508l-28.404,-0c0.497,2.666 1.796,4.779 3.898,6.338c2.101,1.56 4.711,2.339 7.83,2.339c3.977,0 7.253,-1.31 9.829,-3.932l4.542,5.22c-1.627,1.943 -3.683,3.412 -6.169,4.407c-2.485,0.994 -5.287,1.491 -8.406,1.491c-3.977,-0 -7.479,-0.791 -10.507,-2.373c-3.028,-1.582 -5.367,-3.785 -7.017,-6.609c-1.649,-2.825 -2.474,-6.022 -2.474,-9.593c0,-3.525 0.802,-6.7 2.407,-9.524c1.604,-2.825 3.83,-5.028 6.677,-6.61c2.847,-1.581 6.056,-2.372 9.626,-2.372c3.525,-0 6.678,0.779 9.457,2.338c2.779,1.56 4.949,3.751 6.508,6.576c1.559,2.825 2.339,6.09 2.339,9.796Zm-18.304,-11.931c-2.711,-0 -5.005,0.802 -6.88,2.406c-1.876,1.605 -3.017,3.74 -3.424,6.406l20.541,0c-0.362,-2.621 -1.469,-4.745 -3.322,-6.372c-1.853,-1.627 -4.158,-2.44 -6.915,-2.44Z" style="fill:#fff;fill-rule:nonzero;"/><path d="M622.802,276.379c5.333,-0 9.411,1.276 12.236,3.83c2.824,2.553 4.237,6.406 4.237,11.558l-0,21.218l-7.999,0l-0,-4.406c-1.04,1.582 -2.52,2.791 -4.441,3.627c-1.92,0.836 -4.237,1.254 -6.948,1.254c-2.712,-0 -5.085,-0.463 -7.118,-1.39c-2.034,-0.926 -3.604,-2.214 -4.712,-3.864c-1.107,-1.649 -1.66,-3.514 -1.66,-5.593c-0,-3.253 1.208,-5.863 3.626,-7.829c2.418,-1.966 6.226,-2.949 11.423,-2.949l9.355,-0l-0,-0.542c-0,-2.531 -0.757,-4.475 -2.271,-5.83c-1.514,-1.356 -3.762,-2.034 -6.745,-2.034c-2.034,-0 -4.034,0.316 -6,0.949c-1.965,0.633 -3.626,1.514 -4.982,2.644l-3.322,-6.169c1.898,-1.446 4.181,-2.554 6.847,-3.322c2.666,-0.768 5.491,-1.152 8.474,-1.152Zm-1.153,30.912c2.124,-0 4.011,-0.486 5.661,-1.458c1.649,-0.971 2.813,-2.361 3.491,-4.169l-0,-4.203l-8.745,0c-4.881,0 -7.321,1.605 -7.321,4.814c-0,1.536 0.61,2.756 1.83,3.66c1.22,0.904 2.915,1.356 5.084,1.356Z" style="fill:#fff;fill-rule:nonzero;"/><rect x="660.843" y="262.685" width="8.474" height="50.3" style="fill:#fff;fill-rule:nonzero;"/><path d="M726.475,313.46c-3.751,-0 -7.118,-0.791 -10.101,-2.373c-2.982,-1.582 -5.31,-3.785 -6.982,-6.609c-1.672,-2.825 -2.508,-6.022 -2.508,-9.593c-0,-3.57 0.836,-6.756 2.508,-9.558c1.672,-2.802 3.988,-4.994 6.949,-6.576c2.96,-1.581 6.338,-2.372 10.134,-2.372c3.571,-0 6.7,0.723 9.389,2.169c2.689,1.446 4.712,3.525 6.067,6.237l-6.507,3.796c-1.04,-1.672 -2.339,-2.926 -3.898,-3.762c-1.56,-0.837 -3.266,-1.255 -5.119,-1.255c-3.163,0 -5.784,1.029 -7.863,3.085c-2.079,2.056 -3.119,4.802 -3.119,8.236c0,3.435 1.029,6.181 3.085,8.237c2.056,2.056 4.689,3.084 7.897,3.084c1.853,0 3.559,-0.418 5.119,-1.254c1.559,-0.836 2.858,-2.09 3.898,-3.762l6.507,3.796c-1.401,2.712 -3.446,4.802 -6.135,6.271c-2.689,1.468 -5.796,2.203 -9.321,2.203Z" style="fill:#fff;fill-rule:nonzero;"/><path d="M768.042,282.073c2.44,-3.796 6.734,-5.694 12.88,-5.694l-0,8.067c-0.723,-0.136 -1.379,-0.204 -1.966,-0.204c-3.299,0 -5.875,0.961 -7.728,2.881c-1.853,1.921 -2.78,4.689 -2.78,8.305l0,17.557l-8.473,0l-0,-36.2l8.067,0l-0,5.288Z" style="fill:#fff;fill-rule:nonzero;"/><path d="M832.521,295.089c0,0.587 -0.045,1.423 -0.135,2.508l-28.404,-0c0.497,2.666 1.796,4.779 3.898,6.338c2.101,1.56 4.711,2.339 7.829,2.339c3.977,0 7.254,-1.31 9.83,-3.932l4.542,5.22c-1.627,1.943 -3.683,3.412 -6.169,4.407c-2.486,0.994 -5.288,1.491 -8.406,1.491c-3.977,-0 -7.479,-0.791 -10.507,-2.373c-3.028,-1.582 -5.367,-3.785 -7.017,-6.609c-1.649,-2.825 -2.474,-6.022 -2.474,-9.593c-0,-3.525 0.802,-6.7 2.406,-9.524c1.605,-2.825 3.831,-5.028 6.678,-6.61c2.847,-1.581 6.056,-2.372 9.626,-2.372c3.525,-0 6.677,0.779 9.457,2.338c2.779,1.56 4.948,3.751 6.508,6.576c1.559,2.825 2.338,6.09 2.338,9.796Zm-18.303,-11.931c-2.712,-0 -5.005,0.802 -6.881,2.406c-1.875,1.605 -3.016,3.74 -3.423,6.406l20.54,0c-0.361,-2.621 -1.468,-4.745 -3.321,-6.372c-1.853,-1.627 -4.158,-2.44 -6.915,-2.44Z" style="fill:#fff;fill-rule:nonzero;"/><path d="M907.169,276.785l-13.354,36.2l-8.135,0l-9.355,-24.946l-9.491,24.946l-8.134,0l-13.287,-36.2l7.999,0l9.558,26.71l9.965,-26.71l7.118,0l9.762,26.845l9.83,-26.845l7.524,0Z" style="fill:#fff;fill-rule:nonzero;"/><path d="M957.142,269.057c-3.57,0 -5.355,1.944 -5.355,5.83l-0,2.17l9.965,-0l-0,6.779l-9.694,-0l-0,29.149l-8.474,0l-0,-29.149l-5.966,-0l0,-6.779l5.966,-0l-0,-2.305c-0,-3.887 1.13,-6.949 3.389,-9.186c2.26,-2.237 5.446,-3.355 9.559,-3.355c3.254,-0 5.807,0.655 7.66,1.965l-2.372,6.373c-1.447,-0.995 -3.006,-1.492 -4.678,-1.492Z" style="fill:#fff;fill-rule:nonzero;"/><path d="M993.895,313.46c-3.66,-0 -6.959,-0.791 -9.897,-2.373c-2.937,-1.582 -5.231,-3.785 -6.881,-6.609c-1.649,-2.825 -2.474,-6.022 -2.474,-9.593c0,-3.57 0.825,-6.756 2.474,-9.558c1.65,-2.802 3.944,-4.994 6.881,-6.576c2.938,-1.581 6.237,-2.372 9.897,-2.372c3.706,-0 7.028,0.791 9.966,2.372c2.937,1.582 5.231,3.774 6.88,6.576c1.65,2.802 2.475,5.988 2.475,9.558c-0,3.571 -0.825,6.768 -2.475,9.593c-1.649,2.824 -3.943,5.027 -6.88,6.609c-2.938,1.582 -6.26,2.373 -9.966,2.373Zm0,-7.254c3.119,0 5.695,-1.039 7.729,-3.118c2.033,-2.079 3.05,-4.813 3.05,-8.203c0,-3.389 -1.017,-6.123 -3.05,-8.202c-2.034,-2.079 -4.61,-3.119 -7.729,-3.119c-3.118,0 -5.683,1.04 -7.694,3.119c-2.011,2.079 -3.016,4.813 -3.016,8.202c-0,3.39 1.005,6.124 3.016,8.203c2.011,2.079 4.576,3.118 7.694,3.118Z" style="fill:#fff;fill-rule:nonzero;"/><path d="M1040.14,282.073c2.441,-3.796 6.734,-5.694 12.881,-5.694l-0,8.067c-0.723,-0.136 -1.379,-0.204 -1.966,-0.204c-3.299,0 -5.875,0.961 -7.728,2.881c-1.853,1.921 -2.78,4.689 -2.78,8.305l0,17.557l-8.474,0l0,-36.2l8.067,0l0,5.288Z" style="fill:#fff;fill-rule:nonzero;"/><path d="M1089.98,276.785l8.474,0l0,36.2l-8.474,0l0,-36.2Zm4.271,-5.965c-1.536,-0 -2.824,-0.486 -3.864,-1.458c-1.039,-0.971 -1.559,-2.18 -1.559,-3.626c-0,-1.447 0.52,-2.655 1.559,-3.627c1.04,-0.972 2.328,-1.458 3.864,-1.458c1.537,0 2.825,0.464 3.864,1.39c1.04,0.927 1.559,2.09 1.559,3.491c0,1.492 -0.508,2.746 -1.525,3.763c-1.017,1.016 -2.316,1.525 -3.898,1.525Z" style="fill:#fff;fill-rule:nonzero;"/><path d="M1140.83,276.379c4.565,-0 8.225,1.333 10.982,3.999c2.757,2.667 4.135,6.621 4.135,11.864l0,20.743l-8.473,0l-0,-19.659c-0,-3.163 -0.746,-5.547 -2.237,-7.152c-1.492,-1.604 -3.616,-2.406 -6.373,-2.406c-3.118,-0 -5.581,0.938 -7.389,2.813c-1.808,1.876 -2.711,4.576 -2.711,8.101l-0,18.303l-8.474,0l-0,-36.2l8.067,0l-0,4.678c1.401,-1.672 3.163,-2.938 5.287,-3.796c2.125,-0.859 4.52,-1.288 7.186,-1.288Z" style="fill:#fff;fill-rule:nonzero;"/><path d="M1213.24,262.685l0,50.3l-8.135,0l0,-4.677c-1.401,1.717 -3.129,3.005 -5.185,3.864c-2.057,0.859 -4.328,1.288 -6.813,1.288c-3.48,-0 -6.61,-0.768 -9.389,-2.305c-2.78,-1.537 -4.96,-3.717 -6.542,-6.542c-1.582,-2.824 -2.373,-6.067 -2.373,-9.728c0,-3.66 0.791,-6.892 2.373,-9.694c1.582,-2.802 3.762,-4.971 6.542,-6.507c2.779,-1.537 5.909,-2.305 9.389,-2.305c2.395,-0 4.587,0.406 6.575,1.22c1.989,0.813 3.684,2.034 5.084,3.661l0,-18.575l8.474,0Zm-19.117,43.521c2.034,0 3.864,-0.463 5.491,-1.389c1.627,-0.927 2.915,-2.249 3.864,-3.966c0.95,-1.717 1.424,-3.706 1.424,-5.966c0,-2.259 -0.474,-4.248 -1.424,-5.965c-0.949,-1.717 -2.237,-3.039 -3.864,-3.966c-1.627,-0.926 -3.457,-1.39 -5.491,-1.39c-2.033,0 -3.864,0.464 -5.491,1.39c-1.627,0.927 -2.915,2.249 -3.864,3.966c-0.949,1.717 -1.423,3.706 -1.423,5.965c-0,2.26 0.474,4.249 1.423,5.966c0.949,1.717 2.237,3.039 3.864,3.966c1.627,0.926 3.458,1.389 5.491,1.389Z" style="fill:#fff;fill-rule:nonzero;"/><path d="M1270.13,276.785l0,36.2l-8.067,0l0,-4.609c-1.355,1.627 -3.05,2.881 -5.084,3.762c-2.034,0.881 -4.225,1.322 -6.576,1.322c-4.835,-0 -8.643,-1.345 -11.422,-4.034c-2.78,-2.689 -4.169,-6.677 -4.169,-11.965l-0,-20.676l8.473,0l0,19.524c0,3.254 0.735,5.683 2.204,7.287c1.468,1.605 3.559,2.407 6.27,2.407c3.028,-0 5.435,-0.938 7.22,-2.813c1.785,-1.876 2.678,-4.576 2.678,-8.101l-0,-18.304l8.473,0Z" style="fill:#fff;fill-rule:nonzero;"/><path d="M1303.15,313.46c-2.937,-0 -5.807,-0.384 -8.609,-1.153c-2.802,-0.768 -5.039,-1.739 -6.711,-2.915l3.254,-6.44c1.627,1.085 3.581,1.955 5.864,2.61c2.282,0.656 4.53,0.983 6.745,0.983c5.061,0 7.592,-1.333 7.592,-3.999c0,-1.266 -0.644,-2.147 -1.932,-2.644c-1.288,-0.497 -3.355,-0.972 -6.203,-1.424c-2.982,-0.452 -5.412,-0.971 -7.287,-1.559c-1.876,-0.587 -3.503,-1.616 -4.881,-3.084c-1.378,-1.469 -2.068,-3.514 -2.068,-6.135c0,-3.435 1.435,-6.181 4.305,-8.237c2.87,-2.056 6.745,-3.084 11.626,-3.084c2.486,-0 4.971,0.282 7.457,0.847c2.486,0.565 4.519,1.322 6.101,2.271l-3.254,6.44c-3.073,-1.808 -6.53,-2.712 -10.372,-2.712c-2.485,0 -4.372,0.373 -5.66,1.119c-1.288,0.746 -1.932,1.729 -1.932,2.949c-0,1.356 0.689,2.316 2.067,2.881c1.379,0.565 3.514,1.096 6.407,1.593c2.892,0.452 5.265,0.972 7.118,1.559c1.852,0.588 3.446,1.582 4.779,2.983c1.333,1.401 2,3.389 2,5.966c-0,3.389 -1.469,6.101 -4.407,8.134c-2.937,2.034 -6.937,3.051 -11.999,3.051Z" style="fill:#fff;fill-rule:nonzero;"/><path d="M1359.36,311.019c-0.995,0.814 -2.204,1.424 -3.627,1.831c-1.424,0.407 -2.926,0.61 -4.508,0.61c-3.977,-0 -7.05,-1.04 -9.22,-3.118c-2.169,-2.079 -3.254,-5.107 -3.254,-9.084l0,-17.422l-5.965,-0l-0,-6.779l5.965,-0l0,-8.271l8.474,0l0,8.271l9.694,-0l0,6.779l-9.694,-0l0,17.218c0,1.763 0.429,3.107 1.288,4.034c0.859,0.926 2.102,1.39 3.729,1.39c1.898,-0 3.479,-0.498 4.745,-1.492l2.373,6.033Z" style="fill:#fff;fill-rule:nonzero;"/><path d="M1385.13,282.073c2.44,-3.796 6.734,-5.694 12.88,-5.694l0,8.067c-0.723,-0.136 -1.378,-0.204 -1.966,-0.204c-3.299,0 -5.875,0.961 -7.728,2.881c-1.853,1.921 -2.779,4.689 -2.779,8.305l-0,17.557l-8.474,0l-0,-36.2l8.067,0l-0,5.288Z" style="fill:#fff;fill-rule:nonzero;"/><path d="M1451.17,276.785l-16.948,39.115c-1.582,3.932 -3.502,6.7 -5.762,8.305c-2.26,1.604 -4.994,2.406 -8.203,2.406c-1.807,0 -3.592,-0.294 -5.355,-0.881c-1.762,-0.588 -3.209,-1.401 -4.339,-2.441l3.39,-6.236c0.813,0.768 1.774,1.378 2.881,1.83c1.107,0.452 2.226,0.678 3.356,0.678c1.491,0 2.723,-0.384 3.694,-1.152c0.972,-0.769 1.864,-2.057 2.678,-3.864l0.61,-1.424l-15.795,-36.336l8.813,0l11.388,26.778l11.457,-26.778l8.135,0Z" style="fill:#fff;fill-rule:nonzero;"/><path d="M437.453,52.648l47.242,0l-25.689,119.956l44.194,-0l-3.701,18.287l-91.436,-0l29.39,-138.243Z" style="fill:#fff;fill-rule:nonzero;"/><path d="M542.387,52.648l91.653,0l-3.483,16.546l-44.412,0l-9.143,42.017l37.227,0l-3.483,16.328l-37.228,-0l-10.014,46.589l44.412,-0l-3.266,16.763l-91.654,-0l29.391,-138.243Z" style="fill:#fff;fill-rule:nonzero;"/><path d="M755.084,69.194l-35.05,0l-25.907,121.697l-47.025,-0l25.907,-121.697l-34.615,0l3.919,-16.546l116.472,0l-3.701,16.546Z" style="fill:#fff;fill-rule:nonzero;"/><path d="M829.104,92.706c0.435,-2.177 0.653,-5.152 0.653,-8.926c-0,-2.177 -0.145,-4.318 -0.436,-6.422c-0.29,-2.105 -0.798,-3.991 -1.524,-5.66c-0.725,-1.669 -1.814,-2.976 -3.265,-3.919c-1.451,-0.943 -3.338,-1.415 -5.66,-1.415c-2.613,-0 -5.008,0.58 -7.185,1.742c-2.177,1.161 -4.1,2.648 -5.769,4.462c-1.669,1.815 -2.975,3.919 -3.919,6.314c-0.943,2.395 -1.415,4.898 -1.415,7.511c0,3.773 0.98,6.676 2.939,8.708c1.96,2.032 4.536,3.701 7.729,5.007c3.193,1.306 6.821,2.395 10.885,3.266c4.064,0.87 8.273,1.886 12.627,3.048c3.628,1.015 7.257,2.322 10.885,3.918c3.629,1.597 6.858,3.737 9.688,6.423c2.83,2.685 5.116,6.168 6.858,10.449c1.741,4.282 2.612,9.616 2.612,16.002c0,9.143 -1.814,16.835 -5.442,23.076c-3.629,6.241 -8.636,11.321 -15.022,15.24c-6.386,3.918 -13.969,6.749 -22.75,8.49c-8.781,1.742 -18.324,2.613 -28.628,2.613c-10.45,-0 -18.977,-0.69 -25.581,-2.069c-6.603,-1.378 -11.792,-2.866 -15.566,-4.463c-4.499,-1.886 -7.837,-4.063 -10.014,-6.531l7.402,-29.825l38.316,-0c-0.145,1.306 -0.29,3.084 -0.435,5.334c-0.145,2.249 -0.218,4.027 -0.218,5.333c-0,1.742 0.218,3.556 0.653,5.443c0.435,1.887 1.125,3.628 2.068,5.225c0.944,1.596 2.286,2.903 4.028,3.919c1.741,1.015 3.918,1.523 6.531,1.523c2.903,0 5.479,-0.653 7.728,-1.959c2.25,-1.306 4.137,-2.939 5.661,-4.898c1.524,-1.96 2.685,-4.137 3.483,-6.531c0.798,-2.395 1.197,-4.754 1.197,-7.076c0,-3.193 -0.762,-5.878 -2.285,-8.055c-1.524,-2.177 -3.593,-4.027 -6.205,-5.551c-2.613,-1.524 -5.624,-2.83 -9.035,-3.919c-3.411,-1.089 -6.93,-2.213 -10.558,-3.374c-3.484,-1.016 -7.148,-2.25 -10.995,-3.701c-3.846,-1.452 -7.365,-3.484 -10.558,-6.096c-3.193,-2.613 -5.842,-5.914 -7.946,-9.906c-2.105,-3.991 -3.157,-9.107 -3.157,-15.348c-0,-9.289 2.358,-17.09 7.075,-23.403c4.717,-6.314 10.668,-11.43 17.852,-15.348c7.184,-3.919 15.058,-6.713 23.621,-8.382c8.563,-1.669 16.691,-2.504 24.383,-2.504c10.159,0 18.904,1.198 26.233,3.593c7.33,2.394 12.881,5.188 16.655,8.381l-8.055,30.261l-36.139,0Z" style="fill:#fff;fill-rule:nonzero;"/><path d="M970.829,141.472c-0.725,3.193 -1.306,5.951 -1.741,8.273c-0.436,2.322 -0.653,4.499 -0.653,6.531c-0,5.08 1.778,9.144 5.333,12.191c3.556,3.048 8.818,4.572 15.784,4.572c5.08,0 9.253,-0.871 12.518,-2.612c3.266,-1.742 5.951,-4.064 8.055,-6.967c2.105,-2.903 3.774,-6.241 5.007,-10.014c1.234,-3.774 2.286,-7.765 3.157,-11.974l18.505,-88.824l19.811,0l-18.94,89.259c-1.452,6.967 -3.556,13.498 -6.314,19.594c-2.757,6.096 -6.712,11.466 -11.865,16.11c-5.152,4.644 -11.792,8.309 -19.92,10.994c-8.127,2.685 -18.214,4.028 -30.26,4.028c-16.691,-0 -29.028,-2.722 -37.01,-8.164c-7.983,-5.443 -11.974,-13.825 -11.974,-25.145c-0,-5.08 0.653,-11.539 1.959,-19.376c1.307,-7.837 2.976,-16.328 5.008,-25.471l13.28,-61.829l49.418,0l-19.158,88.824Z" style="fill:#fff;fill-rule:nonzero;"/><path d="M1165.89,190.891l-50.943,-0l-24.165,-99.926l-21.335,99.926l-19.594,-0l29.39,-138.243l52.032,0l22.859,101.233l21.553,-101.233l20.028,0l-29.825,138.243Z" style="fill:#fff;fill-rule:nonzero;"/><path d="M1325.69,85.522c0,8.563 -2.395,16.473 -7.184,23.73c-4.79,7.257 -12.699,12.772 -23.73,16.545l25.254,65.094l-48.548,-0l-19.158,-60.304l-2.395,-0l-12.845,60.304l-47.024,-0l29.39,-138.243l57.257,0c6.676,0 12.989,0.4 18.94,1.198c5.951,0.798 11.139,2.395 15.566,4.789c4.427,2.395 7.946,5.733 10.559,10.015c2.612,4.281 3.918,9.905 3.918,16.872Zm-62.699,31.132c3.774,-0 7.003,-1.27 9.688,-3.81c2.685,-2.54 4.862,-5.624 6.531,-9.253c1.669,-3.628 2.867,-7.51 3.592,-11.647c0.726,-4.136 1.089,-7.728 1.089,-10.776c-0,-3.774 -0.653,-7.003 -1.959,-9.688c-1.307,-2.685 -4.137,-4.028 -8.491,-4.028l-9.797,0l-10.885,49.202l10.232,-0Z" style="fill:#fff;fill-rule:nonzero;"/><path d="M1357.26,52.648l91.654,0l-3.483,16.546l-44.412,0l-9.144,42.017l37.228,0l-3.483,16.328l-37.228,-0l-10.014,46.589l44.412,-0l-3.266,16.763l-91.654,-0l29.39,-138.243Z" style="fill:#fff;fill-rule:nonzero;"/><path d="M1557.98,190.891l-50.943,-0l-3.048,-34.615l-40.275,-0l-15.457,34.615l-21.117,-0l64.223,-138.243l51.596,0l15.021,138.243Zm-87.082,-50.508l31.567,0l-5.007,-59.215l-26.56,59.215Z" style="fill:#fff;fill-rule:nonzero;"/><path d="M1597.82,52.648l47.242,0l-25.689,119.956l44.194,-0l-3.701,18.287l-91.436,-0l29.39,-138.243Z" style="fill:#fff;fill-rule:nonzero;"/><path id="LOGO" d="M150.274,8.478c5.76,-0 136.756,75.63 139.636,80.619c2.88,4.988 2.88,156.249 -0,161.237c-2.88,4.989 -133.876,80.619 -139.636,80.619c-5.761,0 -136.756,-75.63 -139.636,-80.619c-2.88,-4.988 -2.88,-156.249 -0,-161.237c2.88,-4.989 133.875,-80.619 139.636,-80.619Z" style="fill:#fff;"/><clipPath id="_clip1"><path d="M150.274,8.478c5.76,-0 136.756,75.63 139.636,80.619c2.88,4.988 2.88,156.249 -0,161.237c-2.88,4.989 -133.876,80.619 -139.636,80.619c-5.761,0 -136.756,-75.63 -139.636,-80.619c-2.88,-4.988 -2.88,-156.249 -0,-161.237c2.88,-4.989 133.875,-80.619 139.636,-80.619Z"/></clipPath><g clip-path="url(#_clip1)"><g><path d="M88.957,108.741l121.945,121.944" style="fill:none;stroke:#262626;stroke-width:6.15px;"/><path d="M89.398,230.743l121.944,-121.944" style="fill:none;stroke:#262626;stroke-width:6.15px;"/></g></g><path d="M150.274,8.478c5.76,-0 136.756,75.63 139.636,80.619c2.88,4.988 2.88,156.249 -0,161.237c-2.88,4.989 -133.876,80.619 -139.636,80.619c-5.761,0 -136.756,-75.63 -139.636,-80.619c-2.88,-4.988 -2.88,-156.249 -0,-161.237c2.88,-4.989 133.875,-80.619 139.636,-80.619Z" style="fill:none;stroke:#fff;stroke-width:16.96px;"/></g></svg>