<?xml version="1.0" encoding="UTF-8" standalone="no"?><!DOCTYPE svg PUBLIC "-//W3C//DTD SVG 1.1//EN" "http://www.w3.org/Graphics/SVG/1.1/DTD/svg11.dtd"><svg width="100%" height="100%" viewBox="0 0 1664 340" version="1.1" xmlns="http://www.w3.org/2000/svg" xmlns:xlink="http://www.w3.org/1999/xlink" xml:space="preserve" xmlns:serif="http://www.serif.com/" style="fill-rule:evenodd;clip-rule:evenodd;stroke-linecap:round;stroke-linejoin:round;stroke-miterlimit:1.5;"><g><text x="398.982px" y="312.985px" style="font-family:'Montserrat-SemiBold', 'Montserrat';font-weight:600;font-size:67.79px;fill:#fff;">u<tspan x="455.869px 513.027px 551.543px 603.414px 655.284px 674.876px 704.308px 754.416px 792.932px 845.142px 907.441px 936.873px 972.067px 1026.51px 1054.99px 1084.42px 1114.73px 1172.23px 1229.52px 1286.41px 1332.04px 1371.51px 1411.72px " y="312.985px 312.985px 312.985px 312.985px 312.985px 312.985px 312.985px 312.985px 312.985px 312.985px 312.985px 312.985px 312.985px 312.985px 312.985px 312.985px 312.985px 312.985px 312.985px 312.985px 312.985px 312.985px 312.985px ">nreal crew for industry</tspan></text><text x="408.063px" y="190.891px" style="font-family:'RacingSansOne-Regular', 'Racing Sans One';font-size:217.705px;fill:#fff;">LETS UNREAL</text><path id="LOGO" d="M150.274,8.478c5.76,-0 136.756,75.63 139.636,80.619c2.88,4.988 2.88,156.249 -0,161.237c-2.88,4.989 -133.876,80.619 -139.636,80.619c-5.761,0 -136.756,-75.63 -139.636,-80.619c-2.88,-4.988 -2.88,-156.249 -0,-161.237c2.88,-4.989 133.875,-80.619 139.636,-80.619Z" style="fill:#fff;"/><clipPath id="_clip1"><path d="M150.274,8.478c5.76,-0 136.756,75.63 139.636,80.619c2.88,4.988 2.88,156.249 -0,161.237c-2.88,4.989 -133.876,80.619 -139.636,80.619c-5.761,0 -136.756,-75.63 -139.636,-80.619c-2.88,-4.988 -2.88,-156.249 -0,-161.237c2.88,-4.989 133.875,-80.619 139.636,-80.619Z"/></clipPath><g clip-path="url(#_clip1)"><g><path d="M88.957,108.741l121.945,121.944" style="fill:none;stroke:#262626;stroke-width:6.15px;"/><path d="M89.398,230.743l121.944,-121.944" style="fill:none;stroke:#262626;stroke-width:6.15px;"/></g></g><path d="M150.274,8.478c5.76,-0 136.756,75.63 139.636,80.619c2.88,4.988 2.88,156.249 -0,161.237c-2.88,4.989 -133.876,80.619 -139.636,80.619c-5.761,0 -136.756,-75.63 -139.636,-80.619c-2.88,-4.988 -2.88,-156.249 -0,-161.237c2.88,-4.989 133.875,-80.619 139.636,-80.619Z" style="fill:none;stroke:#fff;stroke-width:16.96px;"/></g></svg>