<svg id="Layer_35" enable-background="new 0 0 64 64" height="512" viewBox="0 0 64 64" width="512" xmlns="http://www.w3.org/2000/svg"><g><g><g><path d="m4 50h56v12h-56z" fill="#d3a06c"/></g><g><path d="m62 46v4h-2-56-2v-4h4 14 1 5 12 5 1 14z" fill="#b27946"/></g><g><path d="m57.2 32h-9.2c-.19 0-.37.03-.54.08v-.01l2.54-5.07 1.62.4c2.52.63 4.53 2.36 5.58 4.6z" fill="#b4dd7f"/></g><g><path d="m46 38.9v3.1h-7.02c-.91-.77-1.66-1.73-2.17-2.82-.52-1.1-.81-2.32-.81-3.6 0-3.87 2.63-7.24 6.38-8.18l1.62-.4 2.73 5.46c-.45.37-.73.92-.73 1.54z" fill="#b4dd7f"/></g><g><path d="m18 38.9v-4.9c0-1.1-.9-2-2-2h-9.2c.31-.68.72-1.31 1.2-1.87 1.11-1.31 2.62-2.29 4.38-2.73l1.62-.4c0 1.66 1.34 3 3 3 .83 0 1.58-.34 2.12-.88s.88-1.29.88-2.12l1.62.4c3.11.78 5.45 3.23 6.15 6.25.15.62.23 1.27.23 1.93 0 1.28-.29 2.5-.8 3.6-.52 1.09-1.26 2.05-2.17 2.82h-7.03z" fill="#ff826e"/></g><g><path d="m46 42v2c0 1.1-.9 2-2 2h-1-5c-1.1 0-2-.9-2-2v-2h2.98z" fill="#969faa"/></g><g><path d="m28 42v2c0 1.1-.9 2-2 2h-5-1c-1.1 0-2-.9-2-2v-2h7.03z" fill="#969faa"/></g><g><path d="m60 42v2c0 1.1-.9 2-2 2h-14c1.1 0 2-.9 2-2v-2z" fill="#aab2bd"/></g><g><path d="m60 34v8h-14v-3.1-4.9c0-.62.28-1.17.73-1.54.21-.18.46-.31.73-.38.17-.05.35-.08.54-.08h9.2.8c1.1 0 2 .9 2 2z" fill="#ccd1d9"/></g><g><path d="m58 8c0 1.1-.9 2-2 2h-3-2-3c-1.66 0-3 1.34-3 3v1h-.22c-1.54 0-2.78 1.24-2.78 2.78v.04c0 .76.3 1.48.83 2.01.55.55 1.17 1.17 1.17 1.17v5l-.33-.13c-2.31-.86-4.23-2.39-5.57-4.33-1.34-1.93-2.1-4.26-2.1-6.73 0-6.52 5.29-11.81 11.81-11.81h4.19c1.66 0 3.16.67 4.24 1.76 1.09 1.08 1.76 2.58 1.76 4.24z" fill="#656d78"/></g><g><path d="m50 23.88v.01 3.11l-2.54 5.07v.01c-.27.07-.52.2-.73.38l-2.73-5.46v-2-5s-.62-.62-1.17-1.17c-.53-.53-.83-1.25-.83-2.01v-.04c0-1.54 1.24-2.78 2.78-2.78h.22v-1c0-1.66 1.34-3 3-3h3 2c1.66 0 3 1.34 3 3v6.05c0 1.37-.56 2.6-1.45 3.5-.9.89-2.13 1.45-3.5 1.45-.36 0-.71-.04-1.05-.12z" fill="#f0d0b4"/></g><g><path d="m30 30.16c0 1.55-.91 2.88-2.22 3.49h-.01c-.7-3.02-3.04-5.47-6.15-6.25l-1.62-.4v-7s.62-.62 1.17-1.17c.53-.53.83-1.25.83-2.01v-.04c0-1.54-1.24-2.78-2.78-2.78h-.22v-1c0-1.66-1.34-3-3-3h-5c-1.66 0-3 1.34-3 3v-2c0-2.48 1.01-4.74 2.64-6.36 1.62-1.63 3.88-2.64 6.36-2.64 4.97 0 9 4.03 9 9v5.2c0 1.17.35 2.32 1 3.3s1 2.13 1 3.3v1.4c0 1.17.35 2.32 1 3.3l.36.53c.42.63.64 1.37.64 2.13z" fill="#fcd770"/></g><g><path d="m14 23.88c-.34.08-.69.12-1.05.12-1.37 0-2.6-.56-3.5-1.45-.89-.9-1.45-2.13-1.45-3.5v-6.05c0-1.66 1.34-3 3-3h5c1.66 0 3 1.34 3 3v1h.22c1.54 0 2.78 1.24 2.78 2.78v.04c0 .76-.3 1.48-.83 2.01-.55.55-1.17 1.17-1.17 1.17v7c0 .83-.34 1.58-.88 2.12s-1.29.88-2.12.88c-1.66 0-3-1.34-3-3v-3.11z" fill="#f0d0b4"/></g><g><path d="m20 46h-14c-1.1 0-2-.9-2-2v-2h14v2c0 1.1.9 2 2 2z" fill="#aab2bd"/></g><g><path d="m18 38.9v3.1h-14v-8c0-1.1.9-2 2-2h.8 9.2c1.1 0 2 .9 2 2z" fill="#ccd1d9"/></g><g><path d="m14 23.89v3.11l-1.62.4c-1.76.44-3.27 1.42-4.38 2.73v-11.08c0 1.37.56 2.6 1.45 3.5.9.89 2.13 1.45 3.5 1.45.36 0 .71-.04 1.05-.12z" fill="#fcd770"/></g></g><g><path d="m63 45h-2.184c.112-.314.184-.648.184-1v-2-1-7c0-1.654-1.346-3-3-3h-.201c-1.265-2.275-3.389-3.928-5.936-4.565l-.863-.216v-1.222c.017 0 .033.002.05.002 3.281 0 5.95-2.669 5.95-5.95v-6.049c0-.749-.22-1.442-.579-2.042 1.454-.207 2.579-1.448 2.579-2.958 0-3.86-3.141-7-7-7h-4.187c-7.065 0-12.813 5.748-12.813 12.813 0 5.197 3.203 9.917 8 11.865v.54l-.862.215c-4.203 1.052-7.138 4.812-7.138 9.144 0 1.966.621 3.85 1.731 5.423h-1.731v3c0 .352.072.686.184 1h-6.369c.113-.314.185-.648.185-1v-3h-1.731c1.11-1.574 1.731-3.457 1.731-5.423 0-.483-.042-.958-.113-1.424 1.302-.893 2.113-2.384 2.113-3.991 0-.958-.281-1.886-.813-2.684l-.355-.533c-.544-.816-.832-1.766-.832-2.748v-1.395c0-1.378-.404-2.712-1.168-3.857-.544-.816-.832-1.766-.832-2.748v-5.197c0-5.514-4.486-10-10-10s-10 4.486-10 10v2 6.05 10.72c-.299.383-.559.799-.799 1.23h-.201c-1.654 0-3 1.346-3 3v7 1 2c0 .352.072.686.184 1h-2.184v6h2v12h58v-12h2zm-16-2h12v1c0 .551-.448 1-1 1h-11.184c.112-.314.184-.648.184-1zm12-9v7h-12v-7c0-.551.448-1 1-1h10c.552 0 1 .449 1 1zm-7.622-5.625c1.625.406 3.037 1.334 4.045 2.625h-6.305l1.418-2.835zm3.622-9.325c0 2.178-1.772 3.95-3.95 3.95-1.055 0-2.047-.411-2.793-1.157l-.55-.55-1.414 1.414.55.551c.621.621 1.357 1.081 2.157 1.374v2.132l-2 4-2-4v-7.178l-1.464-1.464c-.346-.346-.536-.808-.536-1.347 0-.475.185-.92.521-1.256.336-.335.781-.52 1.256-.52h.002 1.221v-2c0-1.103.897-2 2-2h3 2c1.103 0 2 .897 2 2zm-18-5.237c0-5.962 4.851-10.813 10.813-10.813h4.187c2.757 0 5 2.243 5 5 0 .551-.448 1-1 1h-3-2-3c-2.206 0-4 1.794-4 4v.079c-.712.148-1.366.5-1.893 1.025-.713.714-1.107 1.662-1.107 2.716 0 1.029.398 1.994 1.122 2.716l.878.878v3.073c-3.627-1.81-6-5.565-6-9.674zm0 21.764c0-3.413 2.313-6.374 5.622-7.202l.842-.21 2.068 4.136c-.334.483-.532 1.068-.532 1.699v3.457c-1.205-.701-2-2.003-2-3.457v-1h-2v1c0 2.559 1.643 4.805 4 5.643v1.357h-5.63c-1.505-1.404-2.37-3.357-2.37-5.423zm0 8.423v-1h8v1c0 .551-.448 1-1 1h-1-5c-.552 0-1-.449-1-1zm-18 0v-1h8v1c0 .551-.448 1-1 1h-5-1c-.552 0-1-.449-1-1zm-2-41c4.411 0 8 3.589 8 8v5.197c0 1.378.404 2.712 1.168 3.857.544.817.832 1.767.832 2.749v1.395c0 1.378.404 2.712 1.168 3.857l.355.533c.312.468.477 1.012.477 1.574 0 .695-.258 1.354-.7 1.862-1.106-2.72-3.448-4.842-6.438-5.59l-.862-.215v-5.805l.878-.877c.724-.724 1.122-1.688 1.122-2.762 0-1.009-.394-1.958-1.107-2.671-.526-.526-1.181-.877-1.893-1.025v-.079c0-2.206-1.794-4-4-4h-5c-.671 0-1.294.182-1.85.475.714-3.684 3.961-6.475 7.85-6.475zm3.464 15.122-1.464 1.464v7.414c0 1.103-.897 2-2 2s-2-.897-2-2v-2.368c.8-.293 1.536-.754 2.157-1.374l.55-.55-1.414-1.414-.55.55c-.746.745-1.738 1.156-2.793 1.156-2.178 0-3.95-1.772-3.95-3.95v-6.05c0-1.103.897-2 2-2h5c1.103 0 2 .897 2 2v2h1.223.002c.474 0 .919.185 1.255.52.335.335.52.781.52 1.3 0 .494-.19.956-.536 1.302zm-8.326 8.313c-1.146.286-2.2.787-3.138 1.447v-4.394c1.052.937 2.433 1.512 3.95 1.512.017 0 .033-.002.05-.002v1.222zm.484 1.94.591-.148c.521 1.603 2.012 2.773 3.787 2.773s3.266-1.17 3.787-2.773l.591.148c3.31.828 5.622 3.789 5.622 7.202 0 2.067-.865 4.019-2.37 5.423h-5.63v-1.358c2.356-.837 4-3.083 4-5.642v-1h-2v1c0 1.453-.795 2.756-2 3.456v-3.456c0-1.654-1.346-3-3-3h-7.422c1.008-1.291 2.42-2.219 4.044-2.625zm-7.622 5.625c0-.551.448-1 1-1h10c.552 0 1 .449 1 1v7h-12zm0 10v-1h12v1c0 .352.072.686.184 1h-11.184c-.552 0-1-.449-1-1zm54 17h-54v-10h54zm2-12h-58v-2h3 14 1 5 12 5 1 14 3z"/><path d="m51.776 18.211c-.243.487-.732.789-1.276.789s-1.033-.302-1.276-.789l-.329-.658-1.789.895.329.658c.584 1.168 1.758 1.894 3.065 1.894s2.481-.726 3.065-1.895l.329-.658-1.789-.895z"/><circle cx="48" cy="14" r="1"/><circle cx="53" cy="14" r="1"/><path d="m14.776 18.211c-.243.487-.732.789-1.276.789s-1.033-.302-1.276-.789l-.329-.658-1.789.895.329.658c.584 1.168 1.758 1.894 3.065 1.894s2.481-.726 3.065-1.895l.329-.658-1.789-.895z"/><circle cx="16" cy="14" r="1"/><circle cx="11" cy="14" r="1"/></g></g></svg>