<svg id="_x33_0" enable-background="new 0 0 64 64" height="512" viewBox="0 0 64 64" width="512" xmlns="http://www.w3.org/2000/svg"><g><g><g><circle cx="32" cy="32" fill="#69d6f4" r="24"/></g><g><circle cx="20" cy="12" fill="#e6e9ed" r="10"/></g><g><circle cx="48" cy="30" fill="#e6e9ed" r="10"/></g><g><circle cx="24" cy="48" fill="#e6e9ed" r="14"/></g><g><path d="m32 40v.75c0 .83-.13 1.65-.39 2.43-.4 1.2-1.09 2.27-2 3.14l-.71.68-.03-.01c.09-.32.13-.65.13-.99v-1.51c0-.87-.61-1.61-1.46-1.78-1.14-.23-2.2-.68-3.14-1.31s-1.76-1.44-2.4-2.4l-1.22.81c-1.11.74-1.78 1.99-1.78 3.33v2.86c0 .34.04.67.13.99l-.03.01-.71-.68c-.91-.87-1.6-1.94-2-3.14-.26-.78-.39-1.6-.39-2.43v-.75c0-1.3.42-2.56 1.2-3.6.36-.49.81-.92 1.3-1.27 1.69-.73 3.55-1.13 5.5-1.13s3.81.4 5.5 1.13c.49.35.94.78 1.3 1.27.78 1.04 1.2 2.3 1.2 3.6z" fill="#656d78"/></g><g><path d="m54 37.99v.01c-1.67 1.25-3.75 2-6 2s-4.33-.75-6-2v-.01c0-2.34 1.36-4.37 3.32-5.36l2.68 3.37 2.68-3.37c.58.29 1.11.67 1.56 1.13 1.09 1.08 1.76 2.57 1.76 4.23z" fill="#ff826e"/></g><g><circle cx="48" cy="28" fill="#f0d0b4" r="4"/></g><g><path d="m50.68 32.63-2.68 3.37-2.68-3.37c.8-.4 1.71-.63 2.68-.63s1.88.23 2.68.63z" fill="#f0d0b4"/></g><g><path d="m33.75 58.04v.01c-2.08 2.01-4.78 3.39-7.78 3.81l-.97-3.86 1-2 1 1 2.51-4.2c2.1 1.04 3.65 2.96 4.24 5.24z" fill="#fcd770"/></g><g><path d="m29.51 52.8-2.51 4.2-1-1-2-2 3-2c.9.13 1.74.4 2.51.8z" fill="#ffc729"/></g><g><path d="m29 44.49v1.51c0 .34-.04.67-.13.99-.32 1.26-1.24 2.28-2.44 2.74-.44.18-.93.27-1.43.27h-2c-.5 0-.99-.09-1.43-.27-1.2-.46-2.12-1.48-2.44-2.74-.09-.32-.13-.65-.13-.99v-2.86c0-1.34.67-2.59 1.78-3.33l1.22-.81c.64.96 1.46 1.77 2.4 2.4s2 1.08 3.14 1.31c.85.17 1.46.91 1.46 1.78z" fill="#f0d0b4"/></g><g><path d="m26.43 49.74.57 2.26-3 2-3-2 .57-2.26v-.01c.44.18.93.27 1.43.27h2c.5 0 .99-.09 1.43-.27z" fill="#f0d0b4"/></g><g><path d="m26 56-1 2h-2l-1-2 2-2z" fill="#fc6e51"/></g><g><path d="m26 19.99v.01c-1.67 1.25-3.75 2-6 2s-4.33-.75-6-2v-.01c0-2.34 1.36-4.37 3.32-5.36l2.68 3.37 2.68-3.37c.58.29 1.11.67 1.56 1.13 1.09 1.08 1.76 2.57 1.76 4.23z" fill="#ff826e"/></g><g><path d="m25 58 .97 3.86c-.64.09-1.3.14-1.97.14s-1.33-.05-1.97-.14l.97-3.86z" fill="#ff826e"/></g><g><path d="m24 54-2 2-1 1-2.51-4.2c.77-.4 1.61-.67 2.51-.8z" fill="#ffc729"/></g><g><circle cx="20" cy="10" fill="#f0d0b4" r="4"/></g><g><path d="m22 56 1 2-.97 3.86c-3-.42-5.7-1.8-7.78-3.81v-.01c.59-2.28 2.14-4.2 4.24-5.24l2.51 4.2z" fill="#fcd770"/></g><g><path d="m22.68 14.63-2.68 3.37-2.68-3.37c.8-.4 1.71-.63 2.68-.63s1.88.23 2.68.63z" fill="#f0d0b4"/></g></g><path d="m56.954 36.366c4.055-1.173 6.046-2.601 6.046-4.366 0-1.47-1.373-2.695-4.152-3.743-.232-1.45-.746-2.803-1.488-4.006 3.788-1.149 5.64-2.545 5.64-4.251 0-2.64-4.566-4.62-13.558-5.89-4.6-4.466-10.842-7.11-17.442-7.11-.721 0-1.445.041-2.165.103-1.805-3.611-5.53-6.103-9.835-6.103-6.065 0-11 4.935-11 11 0 1.049.157 2.06.432 3.022-5.67 1.26-8.432 2.892-8.432 4.978 0 2.095 2.905 3.606 7.094 4.676-.285.933-.504 1.885-.678 2.848-4.312 1.191-6.416 2.657-6.416 4.476 0 1.814 2.157 3.315 6.409 4.488.176.964.41 1.916.696 2.851-4.777 1.219-7.105 2.748-7.105 4.661 0 2.035 2.639 3.637 8.045 4.888.463 7.857 6.984 14.112 14.955 14.112 5.06 0 9.533-2.525 12.251-6.374 5.094-.874 9.67-3.28 13.219-6.748 6.654-.928 13.53-2.663 13.53-5.878 0-1.914-2.33-3.443-7.112-4.663.237-.771.445-1.555.607-2.356.162-.198.31-.406.459-.615zm-17.996 12.464c.015-.276.042-.55.042-.83 0-3.407-1.155-6.543-3.076-9.064 1.825-.048 3.627-.12 5.375-.233 1.858 1.434 4.178 2.297 6.701 2.297 2.127 0 4.107-.617 5.792-1.666-1.107 3.293-2.934 6.242-5.295 8.674-2.699.361-5.88.648-9.539.822zm-20.958-5.689v1.119c-.27-.438-.494-.904-.657-1.393-.228-.683-.343-1.394-.343-2.115v-.752c0-1.075.355-2.141 1-3 .288-.384.632-.717 1.015-1.003 1.536-.64 3.219-.997 4.985-.997 1.765 0 3.448.357 4.984.997.384.286.728.619 1.016 1.003.645.859 1 1.925 1 3v.752c0 .72-.115 1.432-.343 2.115-.167.5-.396.978-.674 1.424-.091-1.253-1.003-2.316-2.25-2.565-2.018-.404-3.758-1.569-4.9-3.281l-.555-.832-2.051 1.367c-1.394.93-2.227 2.485-2.227 4.161zm2 0c0-1.005.5-1.938 1.336-2.496l.429-.286c1.416 1.717 3.363 2.887 5.577 3.329.381.076.658.415.658.804v1.508c0 1.654-1.346 3-3 3h-2c-1.654 0-3-1.346-3-3zm6.801 12.246-1.232-1.232 1.635-1.09c.293.057.582.124.861.214zm-3.801-4.387h2c.24 0 .47-.038.701-.071l.158.63-1.859 1.239-1.859-1.239.158-.63c.231.033.461.071.701.071zm-2.204 2.066 1.635 1.09-1.232 1.232-1.265-2.107c.28-.092.568-.159.862-.215zm-2.667 1.092 2.673 4.454.925-.925.214.428-.649 2.595c-2.225-.474-4.233-1.524-5.879-2.978.51-1.477 1.463-2.723 2.716-3.574zm5.489 2.842-.401-.803.783-.783.783.783-.401.803zm2.442 1.116.214-.428.925.925 2.672-4.455c1.253.851 2.206 2.097 2.717 3.575-1.646 1.454-3.655 2.504-5.879 2.978zm1.753-6.985-.219-.878c.986-.604 1.736-1.534 2.117-2.645l.593-.564c1.025-.977 1.803-2.203 2.25-3.544.296-.888.446-1.812.446-2.748v-.752c0-.519-.08-1.031-.194-1.536 2.572 2.377 4.194 5.766 4.194 9.536 0 3.09-1.088 5.929-2.896 8.162-1.2-2.546-3.497-4.419-6.291-5.031zm29.187-21.131c0 2.299-.874 4.393-2.298 5.986-.548-1.821-1.82-3.329-3.48-4.194 1.078-.918 1.778-2.268 1.778-3.792 0-2.757-2.243-5-5-5s-5 2.243-5 5c0 1.524.7 2.874 1.779 3.792-1.66.865-2.932 2.373-3.48 4.194-1.425-1.593-2.299-3.687-2.299-5.986 0-4.962 4.038-9 9-9s9 4.038 9 9zm-12-2c0-1.654 1.346-3 3-3s3 1.346 3 3-1.346 3-3 3-3-1.346-3-3zm3 5c.352 0 .695.038 1.026.108l-1.026 1.288-1.026-1.288c.331-.07.674-.108 1.026-.108zm-2.911.952 2.911 3.652 2.911-3.652c1.133.817 1.894 2.094 2.039 3.556-1.421.941-3.122 1.492-4.95 1.492s-3.529-.551-4.95-1.492c.145-1.462.906-2.739 2.039-3.556zm15.911-1.952c0 .256-.545.979-2.696 1.815.391-1.051.623-2.176.673-3.349 1.551.695 2.023 1.283 2.023 1.534zm0-12c0 .339-.912 1.429-4.935 2.544-.468-.505-.981-.965-1.535-1.376-.815-1.691-1.812-3.261-2.957-4.697 7.598 1.325 9.427 2.996 9.427 3.529zm-29-11c7.828 0 15.107 4.043 19.308 10.51-1.045-.33-2.155-.51-3.308-.51-4.21 0-7.87 2.379-9.719 5.861-2.054.089-4.16.139-6.281.139-9.202 0-16.346-.795-21.245-1.805.465-1.12 1.022-2.202 1.665-3.244 1.975 1.884 4.642 3.049 7.58 3.049 6.065 0 11-4.935 11-11 0-1.025-.151-2.013-.415-2.955.472-.028.944-.045 1.415-.045zm-15 1c0-1.654 1.346-3 3-3s3 1.346 3 3-1.346 3-3 3-3-1.346-3-3zm3 5c.352 0 .695.038 1.026.108l-1.026 1.288-1.026-1.288c.331-.07.674-.108 1.026-.108zm-2.911.952 2.911 3.652 2.911-3.652c1.133.817 1.894 2.094 2.039 3.556-1.421.941-3.122 1.492-4.95 1.492s-3.529-.551-4.95-1.492c.145-1.462.906-2.739 2.039-3.556zm2.911-12.952c4.962 0 9 4.038 9 9 0 2.299-.874 4.393-2.298 5.986-.548-1.821-1.82-3.329-3.48-4.194 1.078-.918 1.778-2.268 1.778-3.792 0-2.757-2.243-5-5-5s-5 2.243-5 5c0 1.524.7 2.874 1.779 3.792-1.66.865-2.932 2.373-3.48 4.194-1.425-1.593-2.299-3.687-2.299-5.986 0-4.962 4.038-9 9-9zm-17 17c0-.442 1.324-1.824 7.171-3.09.258.513.552 1.003.883 1.467-.906 1.39-1.68 2.847-2.287 4.369-3.796-.948-5.767-2.002-5.767-2.746zm29 7c1.839 0 3.66-.043 5.454-.108-.291.986-.454 2.028-.454 3.108 0 2.568.892 4.929 2.373 6.803-1.715.087-3.457.152-5.231.178-2.673-2.463-6.229-3.981-10.142-3.981-3.33 0-6.399 1.104-8.891 2.947-2.397-.331-4.354-.698-5.927-1.074-.12-.951-.182-1.911-.182-2.873 0-2.358.355-4.67 1.044-6.875 6.779 1.407 15.894 1.875 21.956 1.875zm-29 5c0-.315.785-1.277 4.117-2.306-.07.764-.117 1.531-.117 2.306 0 .774.048 1.546.119 2.314-3.208-.988-4.119-1.934-4.119-2.314zm10.143 5.679c-.915.962-1.712 2.037-2.348 3.214-.524-1.253-.936-2.551-1.232-3.878 1.091.237 2.282.459 3.58.664zm-10.143 6.321c0-.382 1.068-1.585 5.771-2.766.288.727.613 1.438.969 2.135-.36 1.105-.588 2.267-.681 3.468-4.931-1.198-6.059-2.436-6.059-2.837zm12.194-5.536c-.114.505-.194 1.017-.194 1.536v.752c0 .936.15 1.86.446 2.747.447 1.342 1.226 2.568 2.251 3.545l.592.564c.381 1.111 1.131 2.041 2.117 2.645l-.219.878c-2.794.611-5.091 2.485-6.291 5.031-1.808-2.233-2.896-5.072-2.896-8.162 0-3.77 1.622-7.159 4.194-9.536zm8.096 22.5.491-1.964h.438l.491 1.964c-.236.013-.47.036-.71.036s-.474-.023-.71-.036zm14.301-6.658c.508-1.09.895-2.245 1.13-3.457 1.574-.074 4.206-.231 7.178-.539-2.438 1.853-5.25 3.232-8.308 3.996zm23.409-10.306c0 .868-2.958 2.39-9.421 3.53 1.504-1.893 2.733-4.011 3.643-6.298 4.709 1.182 5.778 2.385 5.778 2.768z"/></g></svg>