<svg height="512" viewBox="0 0 512 512" width="512" xmlns="http://www.w3.org/2000/svg"><g id="Online_class_group_session"><path d="m455.4905 67.8988h-416.0454c-14.6516 0-26.5291 12.9735-26.5291 27.6249v294.1994a26.529 26.529 0 0 0 26.5291 26.5288h174.5112l-11.5327 84.0367h89.3845l-11.3406-84.0367h175.023a26.5289 26.5289 0 0 0 26.529-26.5288v-294.1994c.0005-14.6514-11.8774-27.6249-26.529-27.6249z" fill="#a3dcf2"/><path d="m228.62 69.848h10v45.84h-10z" fill="#2ca4e8"/><path d="m325.7094 326.792c-61.48 48.21-104.81 83.34-214.58 89.46h344.3611a26.5289 26.5289 0 0 0 26.5289-26.5289v-85.1611s-86.17-32.76-156.31 22.23z" fill="#60c3e8"/><path d="m482.0205 304.5628v85.16a26.5326 26.5326 0 0 1 -26.53 26.53h-108.73a94.4179 94.4179 0 0 1 8.25-107.34c.94-.43 1.89-.86 2.84-1.28.04-.02.08-.03.12-.05 61.7695-26.7001 124.05-3.02 124.05-3.02z" fill="#2ca4e8"/><path d="m12.916 117.061h469.104v227.423h-469.104z" fill="#fdf4d4"/><path d="m482.02 182.0876v162.4007l-469.1042-.0039v-58.9159c72.1336 35.47 217.932 47.9491 275.4271-32.2309 47.9484-66.86 137.7248-74.13 193.6771-71.25z" fill="#fadc71"/><path d="m213.27 421.253h67.872l1.288 10.087-70.546.011z" fill="#49ade8"/><path d="m291.8057 500.2873h-89.38l2.83-20.66c27.65-2.71 61.8-24.72 78-41.82z" fill="#60c3e8"/><circle cx="246.514" cy="382.932" fill="#1d77db" r="12.143"/><path d="m246.6 366.2087a16.7234 16.7234 0 1 0 16.6418 16.8046 16.7422 16.7422 0 0 0 -16.6418-16.8046zm-.1145 23.4465a6.7234 6.7234 0 1 1 6.7564-6.6907 6.7311 6.7311 0 0 1 -6.7562 6.6907z"/><path d="m455.4907 62.8987h-416.0459c-17.09 0-31.5283 14.94-31.5283 32.625v294.1992a31.5646 31.5646 0 0 0 31.5283 31.5293h168.7788l-10.1611 74.0361h-24.3843a5 5 0 0 0 0 10h146.875a5 5 0 0 0 0-10h-24.375l-9.9912-74.0361h169.3037a31.5645 31.5645 0 0 0 31.5283-31.5293v-294.1992c0-17.6846-14.4384-32.625-31.5283-32.625zm-437.5742 32.625c0-12.2642 9.8584-22.625 21.5283-22.625h416.0459c11.67 0 21.5283 10.3608 21.5283 22.625v16.0163h-459.1025zm459.1025 26.0163v107.088h-459.1025v-107.088zm-235.2812 223.0154h-223.8213v-106.9271h223.8213zm-33.5811 150.7329 10.16-74.0356h57.78l9.9912 74.0356zm218.0391-140.7329h50.8232v35.1675a21.5531 21.5531 0 0 1 -21.5283 21.5293h-416.0459a21.5531 21.5531 0 0 1 -21.5283-21.5293v-35.1675h387.4043a5 5 0 0 0 0-10h-154.583v-106.9271h226.2812v106.9271h-50.8232a5 5 0 0 0 0 10z"/><path d="m141.2754 317.0021a17.4362 17.4362 0 0 1 -3.5933-2.0287c-6.192-4.5261-6.6439-13.4125-1.4343-19.0414a19.9966 19.9966 0 1 0 -29.4341-.061c5.6847 6.1919 4.62 16.0753-2.6945 20.2173a17.24 17.24 0 0 1 -1.9335.9411 23.6955 23.6955 0 0 0 -14.3044 22.04v10.9975h67.7645v-10.82a23.957 23.957 0 0 0 -14.3704-22.2448z" fill="#1d77db"/><path d="m160.146 354.5671h-76.7647v-15.4971a28.0226 28.0226 0 0 1 17.0918-26.2011 12.8659 12.8659 0 0 0 1.43-.6963 7.8329 7.8329 0 0 0 3.9346-5.708 9.05 9.05 0 0 0 -2.3379-7.55 24.47 24.47 0 0 1 1.7324-34.792 24.4887 24.4887 0 0 1 34.3178 34.8664 8.8158 8.8158 0 0 0 -2.3516 6.8144 7.6819 7.6819 0 0 0 3.1387 5.5367 13.0208 13.0208 0 0 0 2.6689 1.5078 28.3011 28.3011 0 0 1 17.14 26.3994zm-67.7647-9h58.7647v-6.32c0-7.9312-4.6621-15.2012-11.6006-18.0908a22.02 22.02 0 0 1 -4.5185-2.5493 16.5728 16.5728 0 0 1 -6.7862-11.9361 17.8266 17.8266 0 0 1 4.7041-13.7954 15.489 15.489 0 0 0 -21.7129-22.0455 15.4706 15.4706 0 0 0 -1.1035 21.9966 18 18 0 0 1 4.5987 15.039 16.8883 16.8883 0 0 1 -8.39 12.1377 21.9031 21.9031 0 0 1 -2.4375 1.187 19.305 19.305 0 0 0 -11.5183 17.8797z"/><path d="m391.6145 197.9319a17.4362 17.4362 0 0 1 -3.5933-2.0287c-6.1921-4.5261-6.644-13.4125-1.4343-19.0414a19.9967 19.9967 0 1 0 -29.4342-.061c5.6848 6.1919 4.62 16.0753-2.6944 20.2173a17.2335 17.2335 0 0 1 -1.9336.9411 23.6956 23.6956 0 0 0 -14.3047 22.0408v13.1449h67.7644v-12.9678a23.9568 23.9568 0 0 0 -14.3699-22.2452z" fill="#1d77db"/><path d="m410.4849 237.6446h-76.7649v-17.6446a28.0239 28.0239 0 0 1 17.0918-26.2017 12.8558 12.8558 0 0 0 1.43-.6958 7.833 7.833 0 0 0 3.9346-5.708 9.05 9.05 0 0 0 -2.3379-7.55 24.4962 24.4962 0 1 1 36.0508.0742 8.8182 8.8182 0 0 0 -2.3516 6.814 7.6826 7.6826 0 0 0 3.14 5.5381 12.9493 12.9493 0 0 0 2.667 1.5063l.001.001a28.3017 28.3017 0 0 1 17.14 26.3994zm-67.7647-9h58.7647v-8.4673c0-7.9306-4.6612-15.2007-11.6-18.0908a22.0267 22.0267 0 0 1 -4.52-2.55 16.5739 16.5739 0 0 1 -6.7861-11.9375 17.8246 17.8246 0 0 1 4.7041-13.7935 15.4891 15.4891 0 0 0 -21.7121-22.0455 15.4711 15.4711 0 0 0 -1.1035 21.9971 17.9994 17.9994 0 0 1 4.6 15.0386 16.89 16.89 0 0 1 -8.3906 12.1377 21.9457 21.9457 0 0 1 -2.4375 1.1865 19.306 19.306 0 0 0 -11.5192 17.8801z"/><path d="m391.6144 316.7394a17.4319 17.4319 0 0 1 -3.5933-2.0288c-6.192-4.526-6.6439-13.4124-1.4343-19.0414a19.9966 19.9966 0 1 0 -29.4341-.0609c5.6847 6.1918 4.62 16.0753-2.6945 20.2173a17.24 17.24 0 0 1 -1.9335.941 23.6956 23.6956 0 0 0 -14.3044 22.04v11.191h67.7645v-11.013a23.9569 23.9569 0 0 0 -14.3704-22.2452z" fill="#ff2e6e"/><path d="m405.9848 354.4978h-67.7648a4.5 4.5 0 0 1 -4.5-4.5v-11.1909a28.0227 28.0227 0 0 1 17.0918-26.2012 12.84 12.84 0 0 0 1.4277-.6948 7.8351 7.8351 0 0 0 3.9365-5.71 9.05 9.05 0 0 0 -2.3379-7.55 24.47 24.47 0 0 1 1.7325-34.792 24.4887 24.4887 0 0 1 34.3183 34.8667 8.8179 8.8179 0 0 0 -2.3515 6.814 7.6843 7.6843 0 0 0 3.1386 5.5376 13.061 13.061 0 0 0 2.669 1.5078 28.2994 28.2994 0 0 1 17.14 26.3989v11.0132a4.5 4.5 0 0 1 -4.5002 4.5007zm-63.2646-9h58.7646v-6.5132c0-7.9311-4.6621-15.2011-11.6006-18.0908a22.0162 22.0162 0 0 1 -4.5185-2.5493 16.5747 16.5747 0 0 1 -6.7862-11.937 17.8275 17.8275 0 0 1 4.7041-13.7944 15.489 15.489 0 0 0 -21.7128-22.045 15.47 15.47 0 0 0 -1.1036 21.9966 18.0007 18.0007 0 0 1 4.6 15.0391 16.89 16.89 0 0 1 -8.3907 12.1377 21.8729 21.8729 0 0 1 -2.4375 1.187 19.3048 19.3048 0 0 0 -11.519 17.8784z"/><rect fill="#a3dcf2" height="87.002" rx="43.501" width="128.731" x="181.517" y="189.836"/><path d="m266.7466 281.8376h-41.7295a48.5007 48.5007 0 1 1 0-97.0014h41.73a48.5007 48.5007 0 0 1 0 97.0014zm-41.7295-87.0014a38.5007 38.5007 0 1 0 0 77.0014h41.73a38.5007 38.5007 0 0 0 0-77.0014z"/><path d="m259.2549 226.7774v13.8747h-.009v9.0386a2.7094 2.7094 0 0 1 -2.708 2.7079h-34.56a7.4017 7.4017 0 0 1 -7.3992-7.3993v-23.022a7.4017 7.4017 0 0 1 7.3992-7.3993h34.56a2.7017 2.7017 0 0 1 2.708 2.6989v9.5z" fill="#f9d658"/><path d="m256.5376 256.8987h-34.56a11.9127 11.9127 0 0 1 -11.8994-11.8994v-23.022a11.9127 11.9127 0 0 1 11.8994-11.8994h34.56a7.2117 7.2117 0 0 1 7.208 7.1992v32.4136a7.216 7.216 0 0 1 -7.208 7.208zm-34.56-37.8208a2.9029 2.9029 0 0 0 -2.8994 2.8994v23.022a2.9029 2.9029 0 0 0 2.8994 2.8994h32.7676v-28.8208z"/><path d="m280.357 223.4173v20.5857a2.7 2.7 0 0 1 -3.5683 2.563l-17.5338-5.9139v-13.8747l17.5338-5.9231a2.708 2.708 0 0 1 3.5683 2.563z" fill="#f9d658"/><path d="m277.6528 251.2092a7.1739 7.1739 0 0 1 -2.32-.3852l-20.5771-6.9405v-20.3354l20.5927-6.957a7.2076 7.2076 0 0 1 9.5088 6.8261v20.586a7.2 7.2 0 0 1 -7.2041 7.206zm.5616-8.9111.0127.0039zm-14.459-4.8774 12.1015 4.082v-15.584l-12.1015 4.0884z"/><path d="m215.8516 26.9371c-22.2855-2.7935-85.6 12.559-97.5837 50.7122-11.9834-38.1532-75.2979-53.5057-97.5836-50.7122a8.7324 8.7324 0 0 0 -7.7681 8.5681v122.5622a8.7876 8.7876 0 0 0 9.4668 8.6183c45.1066-2.8528 70.3727 8.1131 83.504 17.5764a21.283 21.283 0 0 0 24.7619 0c13.1313-9.4633 38.3974-20.4292 83.5041-17.5764a8.7876 8.7876 0 0 0 9.4668-8.6183v-122.5622a8.7325 8.7325 0 0 0 -7.7682-8.5681z" fill="#1d77db"/><path d="m118.2681 193.2664a26.1312 26.1312 0 0 1 -15.3047-4.9483c-12.64-9.1089-36.834-19.3921-80.2647-16.6421a14.0862 14.0862 0 0 1 -10.4912-3.7534 13.3969 13.3969 0 0 1 -4.291-9.855v-122.5625a13.7628 13.7628 0 0 1 12.1455-13.5293c11.068-1.3877 33.0586 1.2554 55.1768 10.3369 24.0175 9.8614 36.5459 22.2886 43.0293 33.2276 6.4834-10.939 19.0117-23.3662 43.0293-33.2276 22.1181-9.0815 44.1-11.7236 55.1767-10.3369a13.7628 13.7628 0 0 1 12.1459 13.5293v122.5625a13.3969 13.3969 0 0 1 -4.291 9.855 14.0727 14.0727 0 0 1 -10.4912 3.7534c-43.4365-2.75-67.626 7.5332-80.2646 16.6421a26.1485 26.1485 0 0 1 -15.3051 4.9483zm-81.7364-32.04c37.5342 0 59.835 10.0117 72.2784 18.979a16.3615 16.3615 0 0 0 18.916 0c13.9638-10.063 40.3457-21.4429 86.7422-18.51a3.9869 3.9869 0 0 0 3.0166-1.064 3.4979 3.4979 0 0 0 1.1347-2.564v-122.5623a3.75 3.75 0 0 0 -3.39-3.6064c-10.124-1.27-30.5967 1.6426-50.1348 9.665-12.9707 5.3257-35.6836 17.2905-42.0566 37.5835l-4.77 15.188-4.77-15.188c-6.3731-20.293-29.086-32.2578-42.0567-37.5835-19.5381-8.0224-40.0117-10.938-50.1347-9.665a3.75 3.75 0 0 0 -3.39 3.6064v122.5625a3.4976 3.4976 0 0 0 1.1348 2.564 3.9769 3.9769 0 0 0 3.0166 1.064q7.5818-.4791 14.4635-.4693z"/><path d="m199.7312 13.7907c-13.3482-2.2581-55.6162-7.1991-74.574 16.5512a8.7774 8.7774 0 0 1 -13.7785 0c-18.9578-23.7503-61.2257-18.8093-74.574-16.5512a4.9554 4.9554 0 0 0 -4.1226 4.8893v124.0755a4.9644 4.9644 0 0 0 5.4147 4.9375c42.9178-3.83 65.0247 9.21 74.4331 17.39a8.7331 8.7331 0 0 0 11.4761 0c9.4084-8.18 31.5153-21.22 74.4331-17.39a4.9644 4.9644 0 0 0 5.4147-4.9375v-124.0755a4.9554 4.9554 0 0 0 -4.1226-4.8893z" fill="#f9d658"/><path d="m203.8486 98.5646v44.1906a4.9643 4.9643 0 0 1 -5.4081 4.9408c-15.6193-1.3919-28.4866-.5525-38.9737 1.4769a44.2182 44.2182 0 0 1 -.3825-5.8439 44.768 44.768 0 0 1 44.7643-44.7644z" fill="#f9b323"/><path d="m139.2359 88.1472a4.4943 4.4943 0 0 1 -2.8877-7.9454c.6319-.5234 15.7793-12.7475 43.0684-5.5727a4.5 4.5 0 1 1 -2.2871 8.7041c-22.5684-5.9292-34.5635 3.418-35.0625 3.8188a4.5121 4.5121 0 0 1 -2.8311.9952z"/><path d="m139.2359 108.6232a4.4942 4.4942 0 0 1 -2.8877-7.9453c.6319-.5239 15.7793-12.7485 43.0684-5.5727a4.5 4.5 0 1 1 -2.2871 8.7041c-22.5684-5.93-34.5635 3.4174-35.0625 3.8188a4.512 4.512 0 0 1 -2.8311.9951z"/><path d="m139.2359 130.0529a4.4942 4.4942 0 0 1 -2.8877-7.9453c.6319-.5234 15.7793-12.7476 43.0684-5.5728a4.5 4.5 0 1 1 -2.2871 8.7042c-22.5684-5.93-34.5635 3.4174-35.0625 3.8188a4.5126 4.5126 0 0 1 -2.8311.9951z"/><path d="m96.6881 88.1657a4.4784 4.4784 0 0 1 -2.8457-1.0166c-.5489-.439-12.543-9.7339-35.06-3.8159a4.5 4.5 0 1 1 -2.2871-8.7041c27.2871-7.1753 42.4365 5.0493 43.0683 5.5727a4.5 4.5 0 0 1 -2.8759 7.9639z"/><path d="m96.6881 108.6418a4.4774 4.4774 0 0 1 -2.8467-1.0176c-.5615-.4487-12.5547-9.73-35.0586-3.8149a4.5 4.5 0 1 1 -2.2871-8.7041c27.2871-7.1748 42.4365 5.0493 43.0683 5.5727a4.5 4.5 0 0 1 -2.8759 7.9639z"/><path d="m96.6881 130.0715a4.4774 4.4774 0 0 1 -2.8467-1.0176c-.5615-.4487-12.5547-9.73-35.0586-3.8149a4.5 4.5 0 1 1 -2.2871-8.7042c27.2871-7.1743 42.4365 5.0489 43.0683 5.5728a4.5 4.5 0 0 1 -2.8759 7.9639z"/><path d="m200.5649 8.8606c-17.1259-2.897-59.1435-6.91-79.3164 18.3623a3.7771 3.7771 0 0 1 -5.9619 0c-20.1719-25.2715-62.1875-21.2603-79.3166-18.3623a9.9269 9.9269 0 0 0 -8.2879 9.8194v124.0756a9.9641 9.9641 0 0 0 10.8594 9.9175c41.1113-3.667 61.9443 8.5649 70.708 16.1836a13.8066 13.8066 0 0 0 18.0371 0c8.7627-7.6192 29.6006-19.8555 70.708-16.1831a9.9649 9.9649 0 0 0 10.8594-9.918v-124.0756a9.9277 9.9277 0 0 0 -8.2891-9.8194zm-147.4355 133.1767c-4.84 0-9.9854.2251-15.4473.7183l-.0439-124.0347c12.0018-2.0309 52.5049-6.9677 69.833 14.7408a13.8264 13.8264 0 0 0 6.2964 4.4621v121.6973c-9.5213-7.5256-28.2976-17.5838-60.6382-17.5838zm69.6382 17.5813v-121.6948a13.828 13.828 0 0 0 6.2973-4.4626c17.3077-21.6846 57.7364-16.7832 69.7891-14.7476l.0293 124c-41.9812-3.7512-65.167 8.2527-76.1157 16.905z"/><path d="m410.5832 106.2052v14.7872a2.007 2.007 0 0 1 -.6089 1.44l-15.8913 15.4281a2.0069 2.0069 0 0 0 1.3979 3.4468h15.278a2.0069 2.0069 0 0 1 2.0069 2.0069v10.01a10.3 10.3 0 0 0 10.3 10.3h65.717a10.3 10.3 0 0 0 10.3-10.3v-47.119a10.3 10.3 0 0 0 -10.3-10.3h-67.9a10.3 10.3 0 0 0 -10.2996 10.3z" fill="#ff2e6e"/><path d="m488.7827 168.6243h-65.7168a15.3173 15.3173 0 0 1 -15.3-15.3v-7.0166h-12.2849a7.0075 7.0075 0 0 1 -4.8819-12.0342l14.9844-14.5469v-13.521a15.3173 15.3173 0 0 1 15.3-15.3h67.8994a15.3182 15.3182 0 0 1 15.3008 15.3v47.1184a15.3182 15.3182 0 0 1 -15.301 15.3003zm-85.9219-32.3169h7.8985a7.0148 7.0148 0 0 1 7.0068 7.0068v10.01a5.3065 5.3065 0 0 0 5.3 5.3h65.7168a5.3067 5.3067 0 0 0 5.3008-5.3v-47.1189a5.3067 5.3067 0 0 0 -5.3008-5.3h-67.8996a5.3065 5.3065 0 0 0 -5.3 5.3v14.7871a7.0421 7.0421 0 0 1 -2.1279 5.0288z"/><path d="m477.92 125.8124h-45.4089a4.1 4.1 0 0 1 0-8.2h45.4089a4.1 4.1 0 0 1 0 8.2z"/><path d="m456.1887 142.531h-23.6776a4.1 4.1 0 0 1 0-8.2005h23.6776a4.1 4.1 0 0 1 0 8.2005z"/></g></svg>